<svg width="244" height="616" viewBox="0 0 244 616" fill="none" xmlns="http://www.w3.org/2000/svg" xmlns:xlink="http://www.w3.org/1999/xlink">
    <path fill-rule="evenodd" clip-rule="evenodd" d="M29.5712 40.0997C27.4687 40.9788 25.1668 43.4528 24.4418 46.5613C23.5174 50.4944 27.3508 52.1528 27.668 51.6091C28.0305 50.9747 26.9793 50.7572 26.7618 48.7091C26.4899 46.081 27.7133 43.1266 29.254 41.8397C29.544 41.595 29.5258 41.9303 29.5258 42.5466L29.4715 55.651C29.4715 58.4603 29.3537 59.3394 29.1452 60.2185C28.9368 61.1066 28.6015 61.7047 28.8462 61.9403C29.1362 62.1941 30.3687 61.5778 31.0755 60.581C31.8832 59.349 32.303 57.9033 32.2808 56.4303C32.3443 54.5635 32.3352 51.6 32.3443 49.9144C32.3443 48.3738 32.3715 43.8335 32.3171 41.1056C32.299 40.435 30.4412 39.7372 29.5712 40.1088V40.0997ZM104.001 53.2222C103.973 54.3979 103.701 55.5549 103.204 56.6206C102.434 58.1794 100.821 58.6597 100.132 56.4213C99.7693 55.2069 99.7421 53.1678 100.014 51.4641C100.286 49.7422 101.047 48.4281 102.307 48.546C103.557 48.6638 104.137 50.2678 104.001 53.2222ZM83.0218 62.2666C83.0037 64.6863 82.623 66.8069 81.8074 67.4322C80.6383 68.3022 79.0887 67.6406 79.4058 65.8735C79.6868 64.3147 81.0371 62.7197 83.0308 60.7622L83.0218 62.2666ZM82.7046 53.2041C82.6516 54.3823 82.3812 55.5407 81.9071 56.6206C81.1368 58.1794 79.5146 58.6597 78.8349 56.4213C78.3818 54.8897 78.4905 52.9141 78.7171 51.6635C79.0162 50.0503 79.7321 48.546 81.0099 48.546C82.2605 48.546 82.8768 49.9053 82.7046 53.2041ZM70.5518 53.186C70.5288 54.3759 70.2604 55.5483 69.7633 56.6297C68.9658 58.1703 67.3799 58.6597 66.6821 56.4213C66.1837 54.8172 66.3558 52.615 66.5643 51.4369C66.8724 49.6697 67.6518 48.4281 68.8571 48.5369C70.1077 48.6638 70.7058 50.2588 70.5518 53.186ZM126.241 54.8263C125.942 54.8263 125.797 55.1435 125.688 55.6691C125.289 57.4997 124.872 57.9166 124.329 57.9166C123.731 57.9166 123.187 57.0103 123.042 55.1978C122.933 53.766 122.951 51.1378 123.096 48.5188C123.123 47.9841 122.969 47.4585 121.528 46.9328C120.912 46.7063 120.006 46.371 119.562 47.4585C118.664 49.5277 118.031 51.7016 117.677 53.9291C117.677 53.9835 117.604 53.9925 117.586 53.8747C117.523 53.0863 117.351 51.6453 117.332 48.6275C117.332 48.0385 117.206 47.54 116.553 47.1322C116.127 46.8603 114.849 46.3981 114.378 46.951C113.988 47.4041 113.526 48.6456 113.046 50.1047L112.375 52.0985L112.384 47.676C112.384 47.2228 112.076 47.0688 111.976 47.0416C111.445 46.8776 110.898 46.7653 110.345 46.7063C109.91 46.7063 109.801 46.951 109.801 47.3135C109.801 47.3588 109.729 51.5275 109.729 54.4456V54.8625C109.484 56.2038 108.696 58.0253 107.835 58.0253C106.974 58.0253 106.566 57.2641 106.566 53.7841C106.566 51.7541 106.63 50.875 106.657 49.4069C106.675 48.555 106.711 47.9116 106.711 47.7666C106.702 47.3135 105.923 47.0869 105.56 46.9963C105.198 46.9147 104.871 46.8785 104.627 46.8966C104.264 46.9147 104.02 47.1413 104.02 47.4585V47.9569C103.628 47.3383 103.046 46.8642 102.361 46.6066C101.056 46.2169 99.6968 46.5613 98.6727 47.9931C97.7888 49.2576 97.2685 50.7402 97.1684 52.2797C97.0234 53.6391 97.0777 55.0075 97.3224 56.1766C97.0233 57.4816 96.4524 58.0253 95.8362 58.0253C94.939 58.0253 94.2955 56.5572 94.368 54.0378C94.4224 52.3703 94.7487 51.2013 95.1112 49.5156C95.2652 48.7906 95.1474 48.4281 94.8302 48.0656C94.5402 47.7303 93.924 47.5581 93.0268 47.7666C92.3924 47.9116 91.4862 48.0747 90.6705 48.1925C90.6705 48.1925 90.7158 48.0022 90.7612 47.6488C90.9696 45.8091 88.9668 45.9541 88.3233 46.5431C87.9427 46.8966 87.689 47.3044 87.5802 48.0566C87.4262 49.2347 88.3959 49.7875 88.3959 49.7875C87.7731 52.1398 86.7291 54.3598 85.3146 56.3397V55.7053C85.3055 52.6603 85.3418 50.2678 85.3599 49.4069C85.378 48.555 85.4143 47.9297 85.4143 47.7756C85.4143 47.4494 85.2149 47.3225 84.8162 47.1685C84.4537 47.0235 84.0368 46.9328 83.6018 46.8966C83.058 46.8513 82.7227 47.1413 82.7318 47.4856V47.9569C82.3389 47.3363 81.753 46.8619 81.0643 46.6066C79.7593 46.2169 78.3999 46.5613 77.3758 47.9931C76.5236 49.2702 76.0062 50.7412 75.8715 52.2706C75.7355 53.6935 75.7537 54.8988 75.953 55.9319C75.7446 56.956 75.1465 58.0163 74.4758 58.0163C73.6149 58.0163 73.1165 57.2641 73.1165 53.7841C73.1165 51.7541 73.1799 50.875 73.2071 49.4069C73.2252 48.555 73.2615 47.9116 73.2615 47.7666C73.2615 47.3135 72.473 47.0869 72.1105 46.9963C71.7299 46.9056 71.3946 46.8785 71.1499 46.9056C70.8146 46.9238 70.579 47.2228 70.579 47.4494V47.9569C70.186 47.3363 69.6002 46.8619 68.9115 46.6066C67.6065 46.2169 66.2562 46.5703 65.223 47.9931C64.5434 48.9266 63.9996 49.9597 63.7187 52.2525C63.6426 52.8658 63.6062 53.4833 63.6099 54.1013C63.338 55.7416 62.1508 57.6356 61.1812 57.6356C60.6102 57.6356 60.0665 56.5391 60.0665 54.1919C60.0665 51.0653 60.2658 46.6156 60.293 46.1897L61.7612 46.1625C62.3774 46.1625 62.9302 46.1716 63.7458 46.1263C64.1537 46.1081 64.5433 44.64 64.1265 44.4588C63.9362 44.3772 62.5858 44.3047 62.0421 44.2956C61.589 44.2866 60.3383 44.196 60.3383 44.196C60.3383 44.196 60.4562 41.2416 60.4833 40.9335C60.5015 40.6616 60.1662 40.5347 59.9668 40.4531C59.5195 40.2731 59.0548 40.1395 58.5802 40.0544C57.8915 39.9185 57.5834 40.0544 57.5199 40.6344C57.4293 41.5135 57.384 44.0963 57.384 44.0963C56.8765 44.0963 55.1455 43.9966 54.6471 43.9966C54.1758 43.9966 53.6683 46.0085 54.3208 46.0356L57.2208 46.1172L57.1937 52.035V52.461C56.7133 54.935 55.0458 56.2672 55.0458 56.2672C55.4083 54.636 54.6652 53.4125 53.3512 52.3703C52.8618 51.9897 51.9012 51.2647 50.8227 50.4672C50.8227 50.4672 51.448 49.851 52.0008 48.6185C52.3905 47.7485 52.4087 46.7516 51.448 46.5341C49.8621 46.1625 48.548 47.3225 48.1583 48.5731C48.0063 48.978 47.9681 49.4168 48.048 49.8418C48.1279 50.2668 48.3228 50.6618 48.6115 50.9838L48.7474 51.156C48.3849 51.8447 47.8955 52.7691 47.4787 53.4941C46.3277 55.4878 45.4487 57.0738 44.7871 57.0738C44.2615 57.0738 44.2705 55.4697 44.2705 53.9653C44.2705 52.6694 44.3612 50.721 44.4427 48.7091C44.4699 48.0385 44.1346 47.6578 43.5727 47.3135C43.1259 47.0044 42.6198 46.7914 42.0865 46.6881C41.4521 46.6881 39.6396 46.7788 37.9177 51.736C37.7093 52.3613 37.2833 53.4941 37.2833 53.4941L37.3196 47.54C37.3196 47.395 37.2471 47.2681 37.0749 47.1775C36.5341 46.89 35.9374 46.7231 35.3258 46.6881C34.9996 46.6881 34.8365 46.8422 34.8365 47.1413L34.773 56.4756C34.773 57.1825 34.7912 58.0072 34.8637 58.3697C34.9362 58.7322 35.0449 59.0222 35.1899 59.1944C35.3258 59.3756 35.489 59.5025 35.7518 59.5569C36.0055 59.6113 37.3649 59.7835 37.4374 59.2669C37.528 58.6416 37.528 57.971 38.244 55.4606C39.3496 51.5547 40.7996 49.6425 41.4883 48.9719C41.6062 48.845 41.7421 48.845 41.733 49.0353L41.5337 53.8566C41.3524 58.7231 42.2405 59.6203 43.5002 59.6203C44.4699 59.6203 45.8383 58.6597 47.3065 56.231L49.7533 52.1528L51.1852 53.476C52.3452 54.5635 52.7258 55.6147 52.4721 56.6025C52.2818 57.3547 51.5477 58.1431 50.2608 57.3819C49.8802 57.1553 49.7171 56.9831 49.3455 56.7385C49.1371 56.6025 48.829 56.5572 48.6387 56.7022C48.1583 57.0647 47.8774 57.536 47.7233 58.1069C47.5693 58.6597 48.1312 58.9588 48.7112 59.2125C49.2096 59.4391 50.288 59.6385 50.9768 59.6656C53.6412 59.7563 55.7799 58.3788 57.2662 54.8263C57.538 57.8894 58.6708 59.6294 60.6374 59.6294C61.9515 59.6294 63.2746 57.9256 63.8546 56.2581C64.0177 56.9378 64.2624 57.5269 64.5796 58.0344C66.1021 60.436 69.0474 59.9103 70.5246 57.8713C70.9777 57.246 71.0502 57.0194 71.0502 57.0194C71.0945 57.7055 71.3912 58.351 71.8832 58.8313C72.3752 59.3115 73.0276 59.5926 73.7146 59.6203C74.7115 59.6203 75.7355 59.1491 76.4605 57.5269C76.5421 57.7081 76.6418 57.8713 76.7324 58.0344C78.2549 60.436 81.2002 59.9103 82.6774 57.8713L82.8587 57.6175L82.904 58.8863L81.5446 60.1278C79.2608 62.2122 77.5208 63.7981 77.394 65.6469C77.2308 68.0031 79.143 68.8731 80.593 68.991C81.3183 69.027 82.04 68.8688 82.6837 68.5327C83.3273 68.1965 83.8695 67.6946 84.2543 67.0788C84.9612 66.0366 85.4324 63.7891 85.3962 61.5688L85.3418 58.3425C87.5126 55.8323 89.1802 52.9278 90.2537 49.7875C90.2537 49.7875 91.0965 49.7966 91.9937 49.7422C92.2837 49.7241 92.3652 49.7785 92.3109 49.9869C92.2474 50.2406 91.178 54.3731 92.1568 57.1281C92.8274 59.0131 94.3318 59.6203 95.238 59.6203C96.2802 59.6203 97.2862 58.8319 97.8208 57.6538L98.0293 58.0344C99.5518 60.436 102.488 59.9103 103.974 57.8713C104.31 57.4181 104.5 57.0194 104.5 57.0194C104.826 59.0131 106.376 59.6294 107.264 59.6294C108.188 59.6294 109.076 59.2488 109.783 57.5631C109.811 58.3063 109.856 58.9135 109.928 59.1038C109.974 59.2216 110.236 59.3756 110.436 59.4391C111.279 59.7472 112.14 59.6022 112.466 59.5388C112.683 59.4935 112.856 59.3122 112.883 58.8591C112.946 57.6538 112.91 55.6328 113.272 54.1375C113.88 51.6091 114.451 50.6303 114.722 50.15C114.876 49.8781 115.049 49.8328 115.058 50.1228C115.067 50.7028 115.094 52.4066 115.33 54.6994C115.511 56.385 115.746 57.3819 115.919 57.69C116.435 58.5963 117.07 58.6416 117.577 58.6416C117.903 58.6416 118.592 58.551 118.529 57.98C118.501 57.6991 118.547 55.9681 119.163 53.485C119.553 51.8628 120.205 50.4038 120.441 49.86C120.531 49.6697 120.577 49.8238 120.577 49.86C120.522 50.9656 120.414 54.6178 120.867 56.6206C121.483 59.3213 123.268 59.6294 123.894 59.6294C125.226 59.6294 126.313 58.6144 126.676 55.9591C126.766 55.3247 126.631 54.8263 126.241 54.8263Z" fill="#262626"/>
</svg>